<svg width="488" height="397" viewBox="0 0 488 397" fill="none" xmlns="http://www.w3.org/2000/svg">
<path d="M301.365 10.3807L300.009 10.7642C299.924 10.5384 299.798 10.3189 299.632 10.1058C299.47 9.88849 299.249 9.70952 298.968 9.56889C298.686 9.42827 298.326 9.35795 297.887 9.35795C297.286 9.35795 296.786 9.49645 296.385 9.77344C295.989 10.0462 295.791 10.3935 295.791 10.8153C295.791 11.1903 295.927 11.4865 296.2 11.7038C296.472 11.9212 296.899 12.1023 297.478 12.2472L298.936 12.6051C299.813 12.8182 300.468 13.1442 300.898 13.5831C301.328 14.0178 301.544 14.5781 301.544 15.2642C301.544 15.8267 301.382 16.3295 301.058 16.7727C300.738 17.2159 300.291 17.5653 299.715 17.821C299.14 18.0767 298.471 18.2045 297.708 18.2045C296.707 18.2045 295.878 17.9872 295.222 17.5526C294.566 17.1179 294.15 16.483 293.975 15.6477L295.407 15.2898C295.544 15.8182 295.801 16.2145 296.181 16.4787C296.564 16.7429 297.065 16.875 297.683 16.875C298.386 16.875 298.944 16.7259 299.357 16.4276C299.775 16.125 299.984 15.7628 299.984 15.3409C299.984 15 299.865 14.7145 299.626 14.4844C299.387 14.25 299.021 14.0753 298.526 13.9602L296.89 13.5767C295.991 13.3636 295.33 13.0334 294.909 12.5859C294.491 12.1342 294.282 11.5696 294.282 10.892C294.282 10.3381 294.438 9.84801 294.749 9.42188C295.064 8.99574 295.492 8.66122 296.034 8.41832C296.579 8.17543 297.197 8.05398 297.887 8.05398C298.859 8.05398 299.622 8.26705 300.176 8.69318C300.734 9.11932 301.13 9.68182 301.365 10.3807ZM307.803 18.2045C306.882 18.2045 306.09 17.9872 305.425 17.5526C304.76 17.1179 304.249 16.5192 303.891 15.7564C303.533 14.9936 303.354 14.1222 303.354 13.142C303.354 12.1449 303.537 11.2649 303.904 10.5021C304.275 9.73509 304.79 9.13636 305.451 8.70597C306.115 8.27131 306.891 8.05398 307.777 8.05398C308.468 8.05398 309.09 8.18182 309.644 8.4375C310.198 8.69318 310.652 9.05114 311.005 9.51136C311.359 9.97159 311.578 10.5085 311.664 11.1222H310.155C310.04 10.6747 309.784 10.2784 309.388 9.93324C308.996 9.58381 308.468 9.40909 307.803 9.40909C307.215 9.40909 306.699 9.5625 306.256 9.86932C305.817 10.1719 305.474 10.6001 305.227 11.1541C304.984 11.7038 304.863 12.3494 304.863 13.0909C304.863 13.8494 304.982 14.5099 305.221 15.0724C305.463 15.6349 305.804 16.0717 306.243 16.3828C306.686 16.6939 307.206 16.8494 307.803 16.8494C308.195 16.8494 308.551 16.7812 308.87 16.6449C309.19 16.5085 309.461 16.3125 309.682 16.0568C309.904 15.8011 310.061 15.4943 310.155 15.1364H311.664C311.578 15.7159 311.368 16.2379 311.031 16.7024C310.699 17.1626 310.257 17.5291 309.708 17.8018C309.162 18.0703 308.527 18.2045 307.803 18.2045ZM317.985 18.2045C317.039 18.2045 316.223 17.9957 315.537 17.5781C314.855 17.1562 314.329 16.5682 313.958 15.8139C313.592 15.0554 313.409 14.1733 313.409 13.1676C313.409 12.1619 313.592 11.2756 313.958 10.5085C314.329 9.73722 314.845 9.13636 315.505 8.70597C316.17 8.27131 316.946 8.05398 317.832 8.05398C318.343 8.05398 318.848 8.1392 319.347 8.30966C319.846 8.48011 320.299 8.7571 320.708 9.14062C321.118 9.51989 321.444 10.0227 321.686 10.6491C321.929 11.2756 322.051 12.0469 322.051 12.9631V13.6023H314.483V12.2983H320.517C320.517 11.7443 320.406 11.25 320.184 10.8153C319.967 10.3807 319.656 10.0376 319.251 9.78622C318.85 9.5348 318.377 9.40909 317.832 9.40909C317.231 9.40909 316.711 9.55824 316.272 9.85653C315.838 10.1506 315.503 10.5341 315.269 11.0071C315.034 11.4801 314.917 11.9872 314.917 12.5284V13.3977C314.917 14.1392 315.045 14.7678 315.301 15.2834C315.561 15.7947 315.921 16.1847 316.381 16.4531C316.841 16.7173 317.376 16.8494 317.985 16.8494C318.382 16.8494 318.74 16.794 319.059 16.6832C319.383 16.5682 319.662 16.3977 319.897 16.1719C320.131 15.9418 320.312 15.6562 320.44 15.3153L321.897 15.7244C321.744 16.2188 321.486 16.6534 321.124 17.0284C320.762 17.3991 320.314 17.6889 319.782 17.8977C319.249 18.1023 318.65 18.2045 317.985 18.2045ZM325.854 12.0938V18H324.346V8.18182H325.803V9.71591H325.931C326.161 9.21733 326.51 8.81676 326.979 8.5142C327.448 8.20739 328.053 8.05398 328.794 8.05398C329.459 8.05398 330.041 8.19034 330.539 8.46307C331.038 8.73153 331.426 9.14062 331.703 9.69034C331.98 10.2358 332.118 10.9261 332.118 11.7614V18H330.61V11.8636C330.61 11.0923 330.409 10.4915 330.009 10.0611C329.608 9.62642 329.059 9.40909 328.36 9.40909C327.878 9.40909 327.448 9.51349 327.069 9.7223C326.694 9.93111 326.397 10.2358 326.18 10.6364C325.963 11.0369 325.854 11.5227 325.854 12.0938ZM338.991 18.2045C338.045 18.2045 337.229 17.9957 336.543 17.5781C335.861 17.1562 335.335 16.5682 334.964 15.8139C334.598 15.0554 334.415 14.1733 334.415 13.1676C334.415 12.1619 334.598 11.2756 334.964 10.5085C335.335 9.73722 335.851 9.13636 336.511 8.70597C337.176 8.27131 337.952 8.05398 338.838 8.05398C339.349 8.05398 339.854 8.1392 340.353 8.30966C340.851 8.48011 341.305 8.7571 341.714 9.14062C342.123 9.51989 342.449 10.0227 342.692 10.6491C342.935 11.2756 343.057 12.0469 343.057 12.9631V13.6023H335.488V12.2983H341.523C341.523 11.7443 341.412 11.25 341.19 10.8153C340.973 10.3807 340.662 10.0376 340.257 9.78622C339.856 9.5348 339.383 9.40909 338.838 9.40909C338.237 9.40909 337.717 9.55824 337.278 9.85653C336.844 10.1506 336.509 10.5341 336.275 11.0071C336.04 11.4801 335.923 11.9872 335.923 12.5284V13.3977C335.923 14.1392 336.051 14.7678 336.307 15.2834C336.567 15.7947 336.927 16.1847 337.387 16.4531C337.847 16.7173 338.382 16.8494 338.991 16.8494C339.388 16.8494 339.746 16.794 340.065 16.6832C340.389 16.5682 340.668 16.3977 340.903 16.1719C341.137 15.9418 341.318 15.6562 341.446 15.3153L342.903 15.7244C342.75 16.2188 342.492 16.6534 342.13 17.0284C341.768 17.3991 341.32 17.6889 340.787 17.8977C340.255 18.1023 339.656 18.2045 338.991 18.2045Z" fill="black"/>
<path d="M299.926 87.0938V93H298.418V83.1818H299.875V84.7159H300.003C300.233 84.2173 300.583 83.8168 301.051 83.5142C301.52 83.2074 302.125 83.054 302.867 83.054C303.531 83.054 304.113 83.1903 304.612 83.4631C305.11 83.7315 305.498 84.1406 305.775 84.6903C306.052 85.2358 306.191 85.9261 306.191 86.7614V93H304.682V86.8636C304.682 86.0923 304.482 85.4915 304.081 85.0611C303.681 84.6264 303.131 84.4091 302.432 84.4091C301.95 84.4091 301.52 84.5135 301.141 84.7223C300.766 84.9311 300.47 85.2358 300.252 85.6364C300.035 86.0369 299.926 86.5227 299.926 87.0938ZM312.936 93.2045C312.049 93.2045 311.272 92.9936 310.603 92.5717C309.938 92.1499 309.418 91.5597 309.043 90.8011C308.672 90.0426 308.487 89.1562 308.487 88.142C308.487 87.1193 308.672 86.2266 309.043 85.4638C309.418 84.701 309.938 84.1087 310.603 83.6868C311.272 83.2649 312.049 83.054 312.936 83.054C313.822 83.054 314.598 83.2649 315.262 83.6868C315.931 84.1087 316.451 84.701 316.822 85.4638C317.197 86.2266 317.385 87.1193 317.385 88.142C317.385 89.1562 317.197 90.0426 316.822 90.8011C316.451 91.5597 315.931 92.1499 315.262 92.5717C314.598 92.9936 313.822 93.2045 312.936 93.2045ZM312.936 91.8494C313.609 91.8494 314.163 91.6768 314.598 91.3317C315.032 90.9865 315.354 90.5327 315.563 89.9702C315.772 89.4077 315.876 88.7983 315.876 88.142C315.876 87.4858 315.772 86.8743 315.563 86.3075C315.354 85.7408 315.032 85.2827 314.598 84.9332C314.163 84.5838 313.609 84.4091 312.936 84.4091C312.262 84.4091 311.708 84.5838 311.274 84.9332C310.839 85.2827 310.517 85.7408 310.309 86.3075C310.1 86.8743 309.995 87.4858 309.995 88.142C309.995 88.7983 310.1 89.4077 310.309 89.9702C310.517 90.5327 310.839 90.9865 311.274 91.3317C311.708 91.6768 312.262 91.8494 312.936 91.8494ZM323.395 93.2045C322.577 93.2045 321.854 92.9979 321.228 92.5845C320.601 92.1669 320.111 91.5788 319.758 90.8203C319.404 90.0575 319.227 89.1562 319.227 88.1165C319.227 87.0852 319.404 86.1903 319.758 85.4318C320.111 84.6733 320.604 84.0874 321.234 83.674C321.865 83.2607 322.594 83.054 323.42 83.054C324.059 83.054 324.564 83.1605 324.935 83.3736C325.31 83.5824 325.596 83.821 325.792 84.0895C325.992 84.3537 326.148 84.571 326.258 84.7415H326.386V79.9091H327.895V93H326.437V91.4915H326.258C326.148 91.6705 325.99 91.8963 325.785 92.169C325.581 92.4375 325.289 92.6783 324.91 92.8913C324.53 93.1001 324.025 93.2045 323.395 93.2045ZM323.599 91.8494C324.204 91.8494 324.716 91.6918 325.133 91.3764C325.551 91.0568 325.868 90.6158 326.086 90.0533C326.303 89.4865 326.412 88.8324 326.412 88.0909C326.412 87.358 326.305 86.7166 326.092 86.1669C325.879 85.6129 325.564 85.1825 325.146 84.8757C324.729 84.5646 324.213 84.4091 323.599 84.4091C322.96 84.4091 322.427 84.5732 322.001 84.9013C321.579 85.2251 321.262 85.6662 321.049 86.2244C320.84 86.7784 320.736 87.4006 320.736 88.0909C320.736 88.7898 320.842 89.4247 321.055 89.9957C321.273 90.5625 321.592 91.0142 322.014 91.3509C322.44 91.6832 322.969 91.8494 323.599 91.8494ZM334.983 93.2045C334.037 93.2045 333.221 92.9957 332.535 92.5781C331.854 92.1562 331.327 91.5682 330.956 90.8139C330.59 90.0554 330.407 89.1733 330.407 88.1676C330.407 87.1619 330.59 86.2756 330.956 85.5085C331.327 84.7372 331.843 84.1364 332.503 83.706C333.168 83.2713 333.944 83.054 334.83 83.054C335.341 83.054 335.846 83.1392 336.345 83.3097C336.844 83.4801 337.297 83.7571 337.706 84.1406C338.116 84.5199 338.442 85.0227 338.684 85.6491C338.927 86.2756 339.049 87.0469 339.049 87.9631V88.6023H331.481V87.2983H337.515C337.515 86.7443 337.404 86.25 337.182 85.8153C336.965 85.3807 336.654 85.0376 336.249 84.7862C335.849 84.5348 335.376 84.4091 334.83 84.4091C334.229 84.4091 333.709 84.5582 333.27 84.8565C332.836 85.1506 332.501 85.5341 332.267 86.0071C332.032 86.4801 331.915 86.9872 331.915 87.5284V88.3977C331.915 89.1392 332.043 89.7678 332.299 90.2834C332.559 90.7947 332.919 91.1847 333.379 91.4531C333.839 91.7173 334.374 91.8494 334.983 91.8494C335.38 91.8494 335.738 91.794 336.057 91.6832C336.381 91.5682 336.66 91.3977 336.895 91.1719C337.129 90.9418 337.31 90.6562 337.438 90.3153L338.895 90.7244C338.742 91.2188 338.484 91.6534 338.122 92.0284C337.76 92.3991 337.312 92.6889 336.78 92.8977C336.247 93.1023 335.648 93.2045 334.983 93.2045Z" fill="black"/>
<path d="M296.801 168V158.182H298.258V159.716H298.386C298.59 159.192 298.921 158.785 299.377 158.495C299.833 158.201 300.38 158.054 301.019 158.054C301.667 158.054 302.206 158.201 302.637 158.495C303.071 158.785 303.41 159.192 303.653 159.716H303.755C304.007 159.209 304.384 158.806 304.887 158.508C305.389 158.205 305.992 158.054 306.695 158.054C307.573 158.054 308.291 158.329 308.85 158.879C309.408 159.424 309.687 160.274 309.687 161.429V168H308.178V161.429C308.178 160.705 307.98 160.187 307.584 159.876C307.188 159.565 306.721 159.409 306.184 159.409C305.494 159.409 304.959 159.618 304.58 160.036C304.2 160.449 304.011 160.973 304.011 161.608V168H302.477V161.276C302.477 160.717 302.296 160.268 301.933 159.927C301.571 159.582 301.105 159.409 300.534 159.409C300.142 159.409 299.775 159.513 299.434 159.722C299.097 159.931 298.825 160.221 298.616 160.592C298.411 160.958 298.309 161.382 298.309 161.864V168H296.801ZM316.562 168.205C315.616 168.205 314.8 167.996 314.113 167.578C313.432 167.156 312.905 166.568 312.535 165.814C312.168 165.055 311.985 164.173 311.985 163.168C311.985 162.162 312.168 161.276 312.535 160.509C312.905 159.737 313.421 159.136 314.081 158.706C314.746 158.271 315.522 158.054 316.408 158.054C316.92 158.054 317.425 158.139 317.923 158.31C318.422 158.48 318.876 158.757 319.285 159.141C319.694 159.52 320.02 160.023 320.263 160.649C320.506 161.276 320.627 162.047 320.627 162.963V163.602H313.059V162.298H319.093C319.093 161.744 318.982 161.25 318.76 160.815C318.543 160.381 318.232 160.038 317.827 159.786C317.427 159.535 316.954 159.409 316.408 159.409C315.807 159.409 315.287 159.558 314.849 159.857C314.414 160.151 314.079 160.534 313.845 161.007C313.611 161.48 313.493 161.987 313.493 162.528V163.398C313.493 164.139 313.621 164.768 313.877 165.283C314.137 165.795 314.497 166.185 314.957 166.453C315.417 166.717 315.952 166.849 316.562 166.849C316.958 166.849 317.316 166.794 317.635 166.683C317.959 166.568 318.238 166.398 318.473 166.172C318.707 165.942 318.888 165.656 319.016 165.315L320.474 165.724C320.32 166.219 320.062 166.653 319.7 167.028C319.338 167.399 318.89 167.689 318.358 167.898C317.825 168.102 317.226 168.205 316.562 168.205ZM329.876 160.381L328.521 160.764C328.436 160.538 328.31 160.319 328.144 160.106C327.982 159.888 327.76 159.71 327.479 159.569C327.198 159.428 326.838 159.358 326.399 159.358C325.798 159.358 325.297 159.496 324.897 159.773C324.501 160.046 324.302 160.393 324.302 160.815C324.302 161.19 324.439 161.487 324.711 161.704C324.984 161.921 325.41 162.102 325.99 162.247L327.447 162.605C328.325 162.818 328.979 163.144 329.41 163.583C329.84 164.018 330.055 164.578 330.055 165.264C330.055 165.827 329.893 166.33 329.569 166.773C329.25 167.216 328.802 167.565 328.227 167.821C327.652 168.077 326.983 168.205 326.22 168.205C325.219 168.205 324.39 167.987 323.733 167.553C323.077 167.118 322.662 166.483 322.487 165.648L323.919 165.29C324.055 165.818 324.313 166.214 324.692 166.479C325.076 166.743 325.577 166.875 326.194 166.875C326.898 166.875 327.456 166.726 327.869 166.428C328.287 166.125 328.496 165.763 328.496 165.341C328.496 165 328.376 164.714 328.138 164.484C327.899 164.25 327.532 164.075 327.038 163.96L325.402 163.577C324.503 163.364 323.842 163.033 323.42 162.586C323.003 162.134 322.794 161.57 322.794 160.892C322.794 160.338 322.949 159.848 323.26 159.422C323.576 158.996 324.004 158.661 324.545 158.418C325.091 158.175 325.709 158.054 326.399 158.054C327.371 158.054 328.133 158.267 328.687 158.693C329.246 159.119 329.642 159.682 329.876 160.381ZM333.835 162.094V168H332.326V154.909H333.835V159.716H333.962C334.192 159.209 334.538 158.806 334.998 158.508C335.462 158.205 336.08 158.054 336.852 158.054C337.521 158.054 338.107 158.188 338.609 158.457C339.112 158.721 339.502 159.128 339.779 159.678C340.06 160.223 340.201 160.918 340.201 161.761V168H338.692V161.864C338.692 161.084 338.49 160.481 338.085 160.055C337.685 159.624 337.129 159.409 336.417 159.409C335.923 159.409 335.479 159.513 335.087 159.722C334.7 159.931 334.393 160.236 334.167 160.636C333.945 161.037 333.835 161.523 333.835 162.094Z" fill="black"/>
<path d="M284.283 243.23C283.66 243.23 283.096 243.113 282.589 242.879C282.082 242.64 281.679 242.297 281.381 241.849C281.082 241.398 280.933 240.852 280.933 240.213C280.933 239.651 281.044 239.195 281.266 238.845C281.487 238.491 281.783 238.214 282.154 238.014C282.525 237.814 282.934 237.665 283.381 237.567C283.833 237.464 284.287 237.384 284.743 237.324C285.339 237.247 285.823 237.19 286.194 237.151C286.569 237.109 286.842 237.038 287.012 236.94C287.187 236.842 287.274 236.672 287.274 236.429V236.378C287.274 235.747 287.101 235.257 286.756 234.908C286.415 234.558 285.898 234.384 285.203 234.384C284.483 234.384 283.918 234.541 283.509 234.857C283.1 235.172 282.812 235.509 282.646 235.866L281.214 235.355C281.47 234.759 281.811 234.294 282.237 233.962C282.668 233.625 283.136 233.391 283.643 233.259C284.155 233.122 284.658 233.054 285.152 233.054C285.467 233.054 285.829 233.092 286.239 233.169C286.652 233.241 287.05 233.393 287.434 233.623C287.822 233.853 288.143 234.2 288.399 234.665C288.655 235.129 288.783 235.751 288.783 236.531V243H287.274V241.67H287.197C287.095 241.884 286.925 242.112 286.686 242.354C286.447 242.597 286.13 242.804 285.734 242.974C285.337 243.145 284.854 243.23 284.283 243.23ZM284.513 241.875C285.109 241.875 285.612 241.758 286.021 241.523C286.435 241.289 286.746 240.987 286.954 240.616C287.168 240.245 287.274 239.855 287.274 239.446V238.065C287.21 238.142 287.07 238.212 286.852 238.276C286.639 238.336 286.392 238.389 286.111 238.436C285.834 238.479 285.563 238.517 285.299 238.551C285.039 238.581 284.828 238.607 284.666 238.628C284.274 238.679 283.908 238.762 283.567 238.877C283.23 238.988 282.957 239.156 282.748 239.382C282.544 239.604 282.442 239.906 282.442 240.29C282.442 240.814 282.636 241.21 283.023 241.479C283.415 241.743 283.912 241.875 284.513 241.875ZM295.525 243.205C294.604 243.205 293.812 242.987 293.147 242.553C292.482 242.118 291.971 241.519 291.613 240.756C291.255 239.994 291.076 239.122 291.076 238.142C291.076 237.145 291.259 236.265 291.625 235.502C291.996 234.735 292.512 234.136 293.172 233.706C293.837 233.271 294.613 233.054 295.499 233.054C296.189 233.054 296.812 233.182 297.366 233.438C297.919 233.693 298.373 234.051 298.727 234.511C299.081 234.972 299.3 235.509 299.385 236.122H297.877C297.762 235.675 297.506 235.278 297.11 234.933C296.718 234.584 296.189 234.409 295.525 234.409C294.937 234.409 294.421 234.562 293.978 234.869C293.539 235.172 293.196 235.6 292.949 236.154C292.706 236.704 292.584 237.349 292.584 238.091C292.584 238.849 292.704 239.51 292.942 240.072C293.185 240.635 293.526 241.072 293.965 241.383C294.408 241.694 294.928 241.849 295.525 241.849C295.917 241.849 296.272 241.781 296.592 241.645C296.912 241.509 297.182 241.312 297.404 241.057C297.625 240.801 297.783 240.494 297.877 240.136H299.385C299.3 240.716 299.089 241.238 298.753 241.702C298.42 242.163 297.979 242.529 297.429 242.802C296.884 243.07 296.249 243.205 295.525 243.205ZM305.579 243.205C304.659 243.205 303.866 242.987 303.201 242.553C302.537 242.118 302.025 241.519 301.667 240.756C301.309 239.994 301.13 239.122 301.13 238.142C301.13 237.145 301.314 236.265 301.68 235.502C302.051 234.735 302.566 234.136 303.227 233.706C303.892 233.271 304.667 233.054 305.554 233.054C306.244 233.054 306.866 233.182 307.42 233.438C307.974 233.693 308.428 234.051 308.782 234.511C309.135 234.972 309.355 235.509 309.44 236.122H307.932C307.816 235.675 307.561 235.278 307.165 234.933C306.772 234.584 306.244 234.409 305.579 234.409C304.991 234.409 304.476 234.562 304.032 234.869C303.593 235.172 303.25 235.6 303.003 236.154C302.76 236.704 302.639 237.349 302.639 238.091C302.639 238.849 302.758 239.51 302.997 240.072C303.24 240.635 303.581 241.072 304.02 241.383C304.463 241.694 304.983 241.849 305.579 241.849C305.971 241.849 306.327 241.781 306.647 241.645C306.966 241.509 307.237 241.312 307.459 241.057C307.68 240.801 307.838 240.494 307.932 240.136H309.44C309.355 240.716 309.144 241.238 308.807 241.702C308.475 242.163 308.034 242.529 307.484 242.802C306.939 243.07 306.304 243.205 305.579 243.205ZM315.762 243.205C314.816 243.205 314 242.996 313.314 242.578C312.632 242.156 312.106 241.568 311.735 240.814C311.368 240.055 311.185 239.173 311.185 238.168C311.185 237.162 311.368 236.276 311.735 235.509C312.106 234.737 312.621 234.136 313.282 233.706C313.946 233.271 314.722 233.054 315.608 233.054C316.12 233.054 316.625 233.139 317.123 233.31C317.622 233.48 318.076 233.757 318.485 234.141C318.894 234.52 319.22 235.023 319.463 235.649C319.706 236.276 319.827 237.047 319.827 237.963V238.602H312.259V237.298H318.293C318.293 236.744 318.182 236.25 317.961 235.815C317.743 235.381 317.432 235.038 317.027 234.786C316.627 234.535 316.154 234.409 315.608 234.409C315.008 234.409 314.488 234.558 314.049 234.857C313.614 235.151 313.28 235.534 313.045 236.007C312.811 236.48 312.694 236.987 312.694 237.528V238.398C312.694 239.139 312.821 239.768 313.077 240.283C313.337 240.795 313.697 241.185 314.157 241.453C314.618 241.717 315.152 241.849 315.762 241.849C316.158 241.849 316.516 241.794 316.836 241.683C317.16 241.568 317.439 241.398 317.673 241.172C317.907 240.942 318.089 240.656 318.216 240.315L319.674 240.724C319.52 241.219 319.263 241.653 318.9 242.028C318.538 242.399 318.091 242.689 317.558 242.898C317.025 243.102 316.427 243.205 315.762 243.205ZM329.076 235.381L327.721 235.764C327.636 235.538 327.51 235.319 327.344 235.106C327.182 234.888 326.961 234.71 326.679 234.569C326.398 234.428 326.038 234.358 325.599 234.358C324.998 234.358 324.498 234.496 324.097 234.773C323.701 235.046 323.503 235.393 323.503 235.815C323.503 236.19 323.639 236.487 323.912 236.704C324.184 236.921 324.611 237.102 325.19 237.247L326.647 237.605C327.525 237.818 328.179 238.144 328.61 238.583C329.04 239.018 329.255 239.578 329.255 240.264C329.255 240.827 329.093 241.33 328.77 241.773C328.45 242.216 328.003 242.565 327.427 242.821C326.852 243.077 326.183 243.205 325.42 243.205C324.419 243.205 323.59 242.987 322.934 242.553C322.277 242.118 321.862 241.483 321.687 240.648L323.119 240.29C323.255 240.818 323.513 241.214 323.892 241.479C324.276 241.743 324.777 241.875 325.395 241.875C326.098 241.875 326.656 241.726 327.069 241.428C327.487 241.125 327.696 240.763 327.696 240.341C327.696 240 327.576 239.714 327.338 239.484C327.099 239.25 326.733 239.075 326.238 238.96L324.602 238.577C323.703 238.364 323.042 238.033 322.62 237.586C322.203 237.134 321.994 236.57 321.994 235.892C321.994 235.338 322.15 234.848 322.461 234.422C322.776 233.996 323.204 233.661 323.745 233.418C324.291 233.175 324.909 233.054 325.599 233.054C326.571 233.054 327.334 233.267 327.888 233.693C328.446 234.119 328.842 234.682 329.076 235.381ZM338.481 235.381L337.126 235.764C337.04 235.538 336.915 235.319 336.748 235.106C336.587 234.888 336.365 234.71 336.084 234.569C335.802 234.428 335.442 234.358 335.003 234.358C334.403 234.358 333.902 234.496 333.501 234.773C333.105 235.046 332.907 235.393 332.907 235.815C332.907 236.19 333.043 236.487 333.316 236.704C333.589 236.921 334.015 237.102 334.594 237.247L336.052 237.605C336.93 237.818 337.584 238.144 338.014 238.583C338.445 239.018 338.66 239.578 338.66 240.264C338.66 240.827 338.498 241.33 338.174 241.773C337.854 242.216 337.407 242.565 336.832 242.821C336.256 243.077 335.587 243.205 334.824 243.205C333.823 243.205 332.994 242.987 332.338 242.553C331.682 242.118 331.266 241.483 331.092 240.648L332.523 240.29C332.66 240.818 332.918 241.214 333.297 241.479C333.68 241.743 334.181 241.875 334.799 241.875C335.502 241.875 336.06 241.726 336.474 241.428C336.891 241.125 337.1 240.763 337.1 240.341C337.1 240 336.981 239.714 336.742 239.484C336.503 239.25 336.137 239.075 335.643 238.96L334.006 238.577C333.107 238.364 332.447 238.033 332.025 237.586C331.607 237.134 331.398 236.57 331.398 235.892C331.398 235.338 331.554 234.848 331.865 234.422C332.18 233.996 332.609 233.661 333.15 233.418C333.695 233.175 334.313 233.054 335.003 233.054C335.975 233.054 336.738 233.267 337.292 233.693C337.85 234.119 338.246 234.682 338.481 235.381ZM344.919 243.205C344.033 243.205 343.255 242.994 342.586 242.572C341.921 242.15 341.401 241.56 341.026 240.801C340.656 240.043 340.47 239.156 340.47 238.142C340.47 237.119 340.656 236.227 341.026 235.464C341.401 234.701 341.921 234.109 342.586 233.687C343.255 233.265 344.033 233.054 344.919 233.054C345.805 233.054 346.581 233.265 347.246 233.687C347.915 234.109 348.435 234.701 348.805 235.464C349.18 236.227 349.368 237.119 349.368 238.142C349.368 239.156 349.18 240.043 348.805 240.801C348.435 241.56 347.915 242.15 347.246 242.572C346.581 242.994 345.805 243.205 344.919 243.205ZM344.919 241.849C345.592 241.849 346.146 241.677 346.581 241.332C347.016 240.987 347.337 240.533 347.546 239.97C347.755 239.408 347.859 238.798 347.859 238.142C347.859 237.486 347.755 236.874 347.546 236.308C347.337 235.741 347.016 235.283 346.581 234.933C346.146 234.584 345.592 234.409 344.919 234.409C344.246 234.409 343.692 234.584 343.257 234.933C342.823 235.283 342.501 235.741 342.292 236.308C342.083 236.874 341.979 237.486 341.979 238.142C341.979 238.798 342.083 239.408 342.292 239.97C342.501 240.533 342.823 240.987 343.257 241.332C343.692 241.677 344.246 241.849 344.919 241.849ZM351.671 243V233.182H353.128V234.665H353.23C353.409 234.179 353.733 233.785 354.202 233.482C354.671 233.18 355.199 233.028 355.787 233.028C355.898 233.028 356.036 233.031 356.203 233.035C356.369 233.039 356.495 233.045 356.58 233.054V234.588C356.529 234.575 356.411 234.556 356.228 234.531C356.049 234.501 355.86 234.486 355.659 234.486C355.182 234.486 354.756 234.586 354.381 234.786C354.01 234.982 353.716 235.255 353.499 235.604C353.286 235.95 353.179 236.344 353.179 236.787V243H351.671Z" fill="black"/>
<path d="M273.626 318V304.909H275.135V309.741H275.263C275.373 309.571 275.527 309.354 275.723 309.089C275.923 308.821 276.209 308.582 276.579 308.374C276.954 308.161 277.461 308.054 278.101 308.054C278.927 308.054 279.656 308.261 280.287 308.674C280.917 309.087 281.41 309.673 281.763 310.432C282.117 311.19 282.294 312.085 282.294 313.116C282.294 314.156 282.117 315.058 281.763 315.82C281.41 316.579 280.92 317.167 280.293 317.585C279.667 317.998 278.944 318.205 278.126 318.205C277.496 318.205 276.991 318.1 276.611 317.891C276.232 317.678 275.94 317.437 275.736 317.169C275.531 316.896 275.373 316.67 275.263 316.491H275.084V318H273.626ZM275.109 313.091C275.109 313.832 275.218 314.487 275.435 315.053C275.653 315.616 275.97 316.057 276.388 316.376C276.805 316.692 277.317 316.849 277.922 316.849C278.552 316.849 279.079 316.683 279.501 316.351C279.927 316.014 280.246 315.562 280.459 314.996C280.677 314.425 280.785 313.79 280.785 313.091C280.785 312.401 280.679 311.778 280.466 311.224C280.257 310.666 279.939 310.225 279.513 309.901C279.091 309.573 278.561 309.409 277.922 309.409C277.308 309.409 276.792 309.565 276.375 309.876C275.957 310.183 275.642 310.613 275.429 311.167C275.216 311.717 275.109 312.358 275.109 313.091ZM290.789 313.986V308.182H292.297V318H290.789V316.338H290.687C290.456 316.837 290.099 317.261 289.613 317.61C289.127 317.955 288.513 318.128 287.772 318.128C287.158 318.128 286.613 317.994 286.135 317.725C285.658 317.452 285.283 317.043 285.01 316.498C284.738 315.948 284.601 315.256 284.601 314.42V308.182H286.11V314.318C286.11 315.034 286.31 315.605 286.711 316.031C287.116 316.457 287.631 316.67 288.258 316.67C288.633 316.67 289.014 316.575 289.402 316.383C289.794 316.191 290.122 315.897 290.386 315.501C290.655 315.104 290.789 314.599 290.789 313.986ZM299.433 308.182V309.46H294.14V308.182H299.433ZM295.725 318V306.827C295.725 306.264 295.857 305.795 296.121 305.42C296.386 305.045 296.729 304.764 297.151 304.577C297.572 304.389 298.018 304.295 298.487 304.295C298.857 304.295 299.16 304.325 299.394 304.385C299.629 304.445 299.803 304.5 299.918 304.551L299.484 305.855C299.407 305.83 299.3 305.798 299.164 305.759C299.032 305.721 298.857 305.702 298.64 305.702C298.141 305.702 297.781 305.827 297.56 306.079C297.342 306.33 297.234 306.699 297.234 307.185V318H295.725ZM305.919 308.182V309.46H300.626V308.182H305.919ZM302.211 318V306.827C302.211 306.264 302.344 305.795 302.608 305.42C302.872 305.045 303.215 304.764 303.637 304.577C304.059 304.389 304.504 304.295 304.973 304.295C305.344 304.295 305.646 304.325 305.881 304.385C306.115 304.445 306.29 304.5 306.405 304.551L305.97 305.855C305.893 305.83 305.787 305.798 305.65 305.759C305.518 305.721 305.344 305.702 305.126 305.702C304.628 305.702 304.268 305.827 304.046 306.079C303.829 306.33 303.72 306.699 303.72 307.185V318H302.211ZM311.745 318.205C310.799 318.205 309.983 317.996 309.297 317.578C308.615 317.156 308.089 316.568 307.718 315.814C307.352 315.055 307.169 314.173 307.169 313.168C307.169 312.162 307.352 311.276 307.718 310.509C308.089 309.737 308.605 309.136 309.265 308.706C309.93 308.271 310.705 308.054 311.592 308.054C312.103 308.054 312.608 308.139 313.107 308.31C313.605 308.48 314.059 308.757 314.468 309.141C314.877 309.52 315.203 310.023 315.446 310.649C315.689 311.276 315.811 312.047 315.811 312.963V313.602H308.242V312.298H314.276C314.276 311.744 314.166 311.25 313.944 310.815C313.727 310.381 313.416 310.038 313.011 309.786C312.61 309.535 312.137 309.409 311.592 309.409C310.991 309.409 310.471 309.558 310.032 309.857C309.597 310.151 309.263 310.534 309.029 311.007C308.794 311.48 308.677 311.987 308.677 312.528V313.398C308.677 314.139 308.805 314.768 309.061 315.283C309.32 315.795 309.681 316.185 310.141 316.453C310.601 316.717 311.136 316.849 311.745 316.849C312.142 316.849 312.499 316.794 312.819 316.683C313.143 316.568 313.422 316.398 313.656 316.172C313.891 315.942 314.072 315.656 314.2 315.315L315.657 315.724C315.504 316.219 315.246 316.653 314.884 317.028C314.521 317.399 314.074 317.689 313.541 317.898C313.009 318.102 312.41 318.205 311.745 318.205ZM318.105 318V308.182H319.563V309.665H319.665C319.844 309.179 320.168 308.785 320.637 308.482C321.105 308.18 321.634 308.028 322.222 308.028C322.333 308.028 322.471 308.031 322.637 308.035C322.803 308.039 322.929 308.045 323.014 308.054V309.588C322.963 309.575 322.846 309.556 322.663 309.531C322.484 309.501 322.294 309.486 322.094 309.486C321.617 309.486 321.191 309.586 320.816 309.786C320.445 309.982 320.151 310.255 319.933 310.604C319.72 310.95 319.614 311.344 319.614 311.787V318H318.105ZM325.544 304.909L329.43 315.929H329.584L333.47 304.909H335.132L330.325 318H328.689L323.882 304.909H325.544ZM336.967 318V308.182H338.475V318H336.967ZM337.734 306.545C337.44 306.545 337.186 306.445 336.973 306.245C336.764 306.045 336.66 305.804 336.66 305.523C336.66 305.241 336.764 305.001 336.973 304.8C337.186 304.6 337.44 304.5 337.734 304.5C338.028 304.5 338.279 304.6 338.488 304.8C338.701 305.001 338.808 305.241 338.808 305.523C338.808 305.804 338.701 306.045 338.488 306.245C338.279 306.445 338.028 306.545 337.734 306.545ZM345.355 318.205C344.409 318.205 343.593 317.996 342.906 317.578C342.225 317.156 341.698 316.568 341.328 315.814C340.961 315.055 340.778 314.173 340.778 313.168C340.778 312.162 340.961 311.276 341.328 310.509C341.698 309.737 342.214 309.136 342.874 308.706C343.539 308.271 344.315 308.054 345.201 308.054C345.713 308.054 346.218 308.139 346.716 308.31C347.215 308.48 347.669 308.757 348.078 309.141C348.487 309.52 348.813 310.023 349.056 310.649C349.298 311.276 349.42 312.047 349.42 312.963V313.602H341.852V312.298H347.886C347.886 311.744 347.775 311.25 347.553 310.815C347.336 310.381 347.025 310.038 346.62 309.786C346.22 309.535 345.747 309.409 345.201 309.409C344.6 309.409 344.08 309.558 343.642 309.857C343.207 310.151 342.872 310.534 342.638 311.007C342.404 311.48 342.286 311.987 342.286 312.528V313.398C342.286 314.139 342.414 314.768 342.67 315.283C342.93 315.795 343.29 316.185 343.75 316.453C344.21 316.717 344.745 316.849 345.355 316.849C345.751 316.849 346.109 316.794 346.428 316.683C346.752 316.568 347.031 316.398 347.266 316.172C347.5 315.942 347.681 315.656 347.809 315.315L349.267 315.724C349.113 316.219 348.855 316.653 348.493 317.028C348.131 317.399 347.683 317.689 347.151 317.898C346.618 318.102 346.019 318.205 345.355 318.205ZM353.939 318L350.948 308.182H352.533L354.655 315.699H354.757L356.854 308.182H358.465L360.536 315.673H360.638L362.76 308.182H364.345L361.354 318H359.871L357.723 310.457H357.57L355.422 318H353.939Z" fill="black"/>
<path d="M293.895 393V379.909H295.403V384.741H295.531C295.642 384.571 295.795 384.354 295.991 384.089C296.192 383.821 296.477 383.582 296.848 383.374C297.223 383.161 297.73 383.054 298.369 383.054C299.196 383.054 299.925 383.261 300.555 383.674C301.186 384.087 301.678 384.673 302.032 385.432C302.386 386.19 302.562 387.085 302.562 388.116C302.562 389.156 302.386 390.058 302.032 390.82C301.678 391.579 301.188 392.167 300.562 392.585C299.935 392.998 299.213 393.205 298.395 393.205C297.764 393.205 297.259 393.1 296.88 392.891C296.501 392.678 296.209 392.437 296.004 392.169C295.8 391.896 295.642 391.67 295.531 391.491H295.352V393H293.895ZM295.378 388.091C295.378 388.832 295.486 389.487 295.704 390.053C295.921 390.616 296.239 391.057 296.656 391.376C297.074 391.692 297.585 391.849 298.19 391.849C298.821 391.849 299.347 391.683 299.769 391.351C300.195 391.014 300.515 390.562 300.728 389.996C300.945 389.425 301.054 388.79 301.054 388.091C301.054 387.401 300.947 386.778 300.734 386.224C300.525 385.666 300.208 385.225 299.782 384.901C299.36 384.573 298.829 384.409 298.19 384.409C297.577 384.409 297.061 384.565 296.643 384.876C296.226 385.183 295.91 385.613 295.697 386.167C295.484 386.717 295.378 387.358 295.378 388.091ZM311.057 388.986V383.182H312.566V393H311.057V391.338H310.955C310.725 391.837 310.367 392.261 309.881 392.61C309.396 392.955 308.782 393.128 308.04 393.128C307.427 393.128 306.881 392.994 306.404 392.725C305.927 392.452 305.552 392.043 305.279 391.498C305.006 390.948 304.87 390.256 304.87 389.42V383.182H306.378V389.318C306.378 390.034 306.579 390.605 306.979 391.031C307.384 391.457 307.9 391.67 308.526 391.67C308.901 391.67 309.283 391.575 309.67 391.383C310.062 391.191 310.391 390.897 310.655 390.501C310.923 390.104 311.057 389.599 311.057 388.986ZM319.701 383.182V384.46H314.408V383.182H319.701ZM315.994 393V381.827C315.994 381.264 316.126 380.795 316.39 380.42C316.654 380.045 316.997 379.764 317.419 379.577C317.841 379.389 318.286 379.295 318.755 379.295C319.126 379.295 319.428 379.325 319.663 379.385C319.897 379.445 320.072 379.5 320.187 379.551L319.752 380.855C319.676 380.83 319.569 380.798 319.433 380.759C319.301 380.721 319.126 380.702 318.908 380.702C318.41 380.702 318.05 380.827 317.828 381.079C317.611 381.33 317.502 381.699 317.502 382.185V393H315.994ZM326.187 383.182V384.46H320.895V383.182H326.187ZM322.48 393V381.827C322.48 381.264 322.612 380.795 322.876 380.42C323.141 380.045 323.484 379.764 323.905 379.577C324.327 379.389 324.773 379.295 325.241 379.295C325.612 379.295 325.915 379.325 326.149 379.385C326.383 379.445 326.558 379.5 326.673 379.551L326.239 380.855C326.162 380.83 326.055 380.798 325.919 380.759C325.787 380.721 325.612 380.702 325.395 380.702C324.896 380.702 324.536 380.827 324.315 381.079C324.097 381.33 323.989 381.699 323.989 382.185V393H322.48ZM332.014 393.205C331.068 393.205 330.252 392.996 329.566 392.578C328.884 392.156 328.358 391.568 327.987 390.814C327.62 390.055 327.437 389.173 327.437 388.168C327.437 387.162 327.62 386.276 327.987 385.509C328.358 384.737 328.873 384.136 329.534 383.706C330.198 383.271 330.974 383.054 331.86 383.054C332.372 383.054 332.877 383.139 333.375 383.31C333.874 383.48 334.328 383.757 334.737 384.141C335.146 384.52 335.472 385.023 335.715 385.649C335.958 386.276 336.079 387.047 336.079 387.963V388.602H328.511V387.298H334.545C334.545 386.744 334.434 386.25 334.213 385.815C333.995 385.381 333.684 385.038 333.279 384.786C332.879 384.535 332.406 384.409 331.86 384.409C331.259 384.409 330.74 384.558 330.301 384.857C329.866 385.151 329.532 385.534 329.297 386.007C329.063 386.48 328.946 386.987 328.946 387.528V388.398C328.946 389.139 329.073 389.768 329.329 390.283C329.589 390.795 329.949 391.185 330.409 391.453C330.87 391.717 331.404 391.849 332.014 391.849C332.41 391.849 332.768 391.794 333.088 391.683C333.411 391.568 333.691 391.398 333.925 391.172C334.159 390.942 334.34 390.656 334.468 390.315L335.926 390.724C335.772 391.219 335.514 391.653 335.152 392.028C334.79 392.399 334.343 392.689 333.81 392.898C333.277 393.102 332.679 393.205 332.014 393.205ZM338.374 393V383.182H339.831V384.665H339.934C340.112 384.179 340.436 383.785 340.905 383.482C341.374 383.18 341.902 383.028 342.49 383.028C342.601 383.028 342.74 383.031 342.906 383.035C343.072 383.039 343.198 383.045 343.283 383.054V384.588C343.232 384.575 343.115 384.556 342.931 384.531C342.752 384.501 342.563 384.486 342.362 384.486C341.885 384.486 341.459 384.586 341.084 384.786C340.713 384.982 340.419 385.255 340.202 385.604C339.989 385.95 339.882 386.344 339.882 386.787V393H338.374Z" fill="black"/>
<path d="M149.79 168.205C148.87 168.205 148.077 167.987 147.412 167.553C146.748 167.118 146.236 166.519 145.878 165.756C145.52 164.994 145.341 164.122 145.341 163.142C145.341 162.145 145.525 161.265 145.891 160.502C146.262 159.735 146.777 159.136 147.438 158.706C148.103 158.271 148.878 158.054 149.765 158.054C150.455 158.054 151.077 158.182 151.631 158.438C152.185 158.693 152.639 159.051 152.993 159.511C153.346 159.972 153.566 160.509 153.651 161.122H152.142C152.027 160.675 151.772 160.278 151.375 159.933C150.983 159.584 150.455 159.409 149.79 159.409C149.202 159.409 148.687 159.562 148.243 159.869C147.804 160.172 147.461 160.6 147.214 161.154C146.971 161.704 146.85 162.349 146.85 163.091C146.85 163.849 146.969 164.51 147.208 165.072C147.451 165.635 147.792 166.072 148.231 166.383C148.674 166.694 149.194 166.849 149.79 166.849C150.182 166.849 150.538 166.781 150.858 166.645C151.177 166.509 151.448 166.312 151.669 166.057C151.891 165.801 152.049 165.494 152.142 165.136H153.651C153.566 165.716 153.355 166.238 153.018 166.702C152.686 167.163 152.245 167.529 151.695 167.802C151.15 168.07 150.515 168.205 149.79 168.205ZM158.745 168.23C158.123 168.23 157.559 168.113 157.052 167.879C156.544 167.64 156.142 167.297 155.843 166.849C155.545 166.398 155.396 165.852 155.396 165.213C155.396 164.651 155.507 164.195 155.728 163.845C155.95 163.491 156.246 163.214 156.617 163.014C156.988 162.814 157.397 162.665 157.844 162.567C158.296 162.464 158.75 162.384 159.206 162.324C159.802 162.247 160.286 162.19 160.657 162.151C161.032 162.109 161.304 162.038 161.475 161.94C161.65 161.842 161.737 161.672 161.737 161.429V161.378C161.737 160.747 161.564 160.257 161.219 159.908C160.878 159.558 160.361 159.384 159.666 159.384C158.946 159.384 158.381 159.541 157.972 159.857C157.563 160.172 157.275 160.509 157.109 160.866L155.677 160.355C155.933 159.759 156.274 159.294 156.7 158.962C157.13 158.625 157.599 158.391 158.106 158.259C158.618 158.122 159.12 158.054 159.615 158.054C159.93 158.054 160.292 158.092 160.701 158.169C161.115 158.241 161.513 158.393 161.897 158.623C162.285 158.853 162.606 159.2 162.862 159.665C163.118 160.129 163.245 160.751 163.245 161.531V168H161.737V166.67H161.66C161.558 166.884 161.388 167.112 161.149 167.354C160.91 167.597 160.593 167.804 160.196 167.974C159.8 168.145 159.316 168.23 158.745 168.23ZM158.976 166.875C159.572 166.875 160.075 166.758 160.484 166.523C160.897 166.289 161.209 165.987 161.417 165.616C161.63 165.245 161.737 164.855 161.737 164.446V163.065C161.673 163.142 161.532 163.212 161.315 163.276C161.102 163.336 160.855 163.389 160.574 163.436C160.297 163.479 160.026 163.517 159.762 163.551C159.502 163.581 159.291 163.607 159.129 163.628C158.737 163.679 158.37 163.762 158.03 163.877C157.693 163.988 157.42 164.156 157.211 164.382C157.007 164.604 156.905 164.906 156.905 165.29C156.905 165.814 157.098 166.21 157.486 166.479C157.878 166.743 158.375 166.875 158.976 166.875ZM165.999 168V158.182H167.456V159.716H167.584C167.789 159.192 168.119 158.785 168.575 158.495C169.031 158.201 169.578 158.054 170.218 158.054C170.865 158.054 171.404 158.201 171.835 158.495C172.269 158.785 172.608 159.192 172.851 159.716H172.953C173.205 159.209 173.582 158.806 174.085 158.508C174.588 158.205 175.191 158.054 175.894 158.054C176.772 158.054 177.49 158.329 178.048 158.879C178.606 159.424 178.885 160.274 178.885 161.429V168H177.377V161.429C177.377 160.705 177.179 160.187 176.782 159.876C176.386 159.565 175.919 159.409 175.382 159.409C174.692 159.409 174.157 159.618 173.778 160.036C173.399 160.449 173.209 160.973 173.209 161.608V168H171.675V161.276C171.675 160.717 171.494 160.268 171.132 159.927C170.769 159.582 170.303 159.409 169.732 159.409C169.34 159.409 168.973 159.513 168.632 159.722C168.296 159.931 168.023 160.221 167.814 160.592C167.61 160.958 167.507 161.382 167.507 161.864V168H165.999ZM185.76 168.205C184.814 168.205 183.998 167.996 183.312 167.578C182.63 167.156 182.104 166.568 181.733 165.814C181.366 165.055 181.183 164.173 181.183 163.168C181.183 162.162 181.366 161.276 181.733 160.509C182.104 159.737 182.619 159.136 183.28 158.706C183.945 158.271 184.72 158.054 185.606 158.054C186.118 158.054 186.623 158.139 187.121 158.31C187.62 158.48 188.074 158.757 188.483 159.141C188.892 159.52 189.218 160.023 189.461 160.649C189.704 161.276 189.825 162.047 189.825 162.963V163.602H182.257V162.298H188.291C188.291 161.744 188.18 161.25 187.959 160.815C187.741 160.381 187.43 160.038 187.025 159.786C186.625 159.535 186.152 159.409 185.606 159.409C185.006 159.409 184.486 159.558 184.047 159.857C183.612 160.151 183.278 160.534 183.043 161.007C182.809 161.48 182.692 161.987 182.692 162.528V163.398C182.692 164.139 182.82 164.768 183.075 165.283C183.335 165.795 183.695 166.185 184.155 166.453C184.616 166.717 185.15 166.849 185.76 166.849C186.156 166.849 186.514 166.794 186.834 166.683C187.158 166.568 187.437 166.398 187.671 166.172C187.905 165.942 188.087 165.656 188.214 165.315L189.672 165.724C189.518 166.219 189.261 166.653 188.898 167.028C188.536 167.399 188.089 167.689 187.556 167.898C187.023 168.102 186.425 168.205 185.76 168.205ZM192.12 168V158.182H193.577V159.665H193.68C193.859 159.179 194.182 158.785 194.651 158.482C195.12 158.18 195.648 158.028 196.236 158.028C196.347 158.028 196.486 158.031 196.652 158.035C196.818 158.039 196.944 158.045 197.029 158.054V159.588C196.978 159.575 196.861 159.556 196.677 159.531C196.498 159.501 196.309 159.486 196.109 159.486C195.631 159.486 195.205 159.586 194.83 159.786C194.459 159.982 194.165 160.255 193.948 160.604C193.735 160.95 193.628 161.344 193.628 161.787V168H192.12ZM201.706 168.23C201.084 168.23 200.52 168.113 200.013 167.879C199.505 167.64 199.103 167.297 198.804 166.849C198.506 166.398 198.357 165.852 198.357 165.213C198.357 164.651 198.468 164.195 198.689 163.845C198.911 163.491 199.207 163.214 199.578 163.014C199.949 162.814 200.358 162.665 200.805 162.567C201.257 162.464 201.711 162.384 202.167 162.324C202.763 162.247 203.247 162.19 203.618 162.151C203.993 162.109 204.265 162.038 204.436 161.94C204.611 161.842 204.698 161.672 204.698 161.429V161.378C204.698 160.747 204.525 160.257 204.18 159.908C203.839 159.558 203.321 159.384 202.627 159.384C201.907 159.384 201.342 159.541 200.933 159.857C200.524 160.172 200.236 160.509 200.07 160.866L198.638 160.355C198.894 159.759 199.235 159.294 199.661 158.962C200.091 158.625 200.56 158.391 201.067 158.259C201.579 158.122 202.081 158.054 202.576 158.054C202.891 158.054 203.253 158.092 203.662 158.169C204.076 158.241 204.474 158.393 204.858 158.623C205.245 158.853 205.567 159.2 205.823 159.665C206.079 160.129 206.206 160.751 206.206 161.531V168H204.698V166.67H204.621C204.519 166.884 204.348 167.112 204.11 167.354C203.871 167.597 203.554 167.804 203.157 167.974C202.761 168.145 202.277 168.23 201.706 168.23ZM201.937 166.875C202.533 166.875 203.036 166.758 203.445 166.523C203.858 166.289 204.169 165.987 204.378 165.616C204.591 165.245 204.698 164.855 204.698 164.446V163.065C204.634 163.142 204.493 163.212 204.276 163.276C204.063 163.336 203.816 163.389 203.535 163.436C203.258 163.479 202.987 163.517 202.723 163.551C202.463 163.581 202.252 163.607 202.09 163.628C201.698 163.679 201.331 163.762 200.991 163.877C200.654 163.988 200.381 164.156 200.172 164.382C199.968 164.604 199.866 164.906 199.866 165.29C199.866 165.814 200.059 166.21 200.447 166.479C200.839 166.743 201.336 166.875 201.937 166.875Z" fill="black"/>
<path d="M143.841 243V233.182H145.298V234.716H145.426C145.63 234.192 145.961 233.785 146.417 233.495C146.873 233.201 147.42 233.054 148.059 233.054C148.707 233.054 149.246 233.201 149.677 233.495C150.111 233.785 150.45 234.192 150.693 234.716H150.795C151.047 234.209 151.424 233.806 151.927 233.508C152.429 233.205 153.032 233.054 153.736 233.054C154.613 233.054 155.331 233.329 155.89 233.879C156.448 234.424 156.727 235.274 156.727 236.429V243H155.218V236.429C155.218 235.705 155.02 235.187 154.624 234.876C154.228 234.565 153.761 234.409 153.224 234.409C152.534 234.409 151.999 234.618 151.62 235.036C151.241 235.449 151.051 235.973 151.051 236.608V243H149.517V236.276C149.517 235.717 149.336 235.268 148.973 234.927C148.611 234.582 148.145 234.409 147.574 234.409C147.182 234.409 146.815 234.513 146.474 234.722C146.138 234.931 145.865 235.221 145.656 235.592C145.451 235.958 145.349 236.382 145.349 236.864V243H143.841ZM162.374 243.23C161.752 243.23 161.188 243.113 160.68 242.879C160.173 242.64 159.771 242.297 159.472 241.849C159.174 241.398 159.025 240.852 159.025 240.213C159.025 239.651 159.136 239.195 159.357 238.845C159.579 238.491 159.875 238.214 160.246 238.014C160.617 237.814 161.026 237.665 161.473 237.567C161.925 237.464 162.379 237.384 162.835 237.324C163.431 237.247 163.915 237.19 164.286 237.151C164.661 237.109 164.933 237.038 165.104 236.94C165.278 236.842 165.366 236.672 165.366 236.429V236.378C165.366 235.747 165.193 235.257 164.848 234.908C164.507 234.558 163.989 234.384 163.295 234.384C162.575 234.384 162.01 234.541 161.601 234.857C161.192 235.172 160.904 235.509 160.738 235.866L159.306 235.355C159.562 234.759 159.903 234.294 160.329 233.962C160.759 233.625 161.228 233.391 161.735 233.259C162.247 233.122 162.749 233.054 163.244 233.054C163.559 233.054 163.921 233.092 164.33 233.169C164.744 233.241 165.142 233.393 165.526 233.623C165.913 233.853 166.235 234.2 166.491 234.665C166.747 235.129 166.874 235.751 166.874 236.531V243H165.366V241.67H165.289C165.187 241.884 165.016 242.112 164.778 242.354C164.539 242.597 164.222 242.804 163.825 242.974C163.429 243.145 162.945 243.23 162.374 243.23ZM162.604 241.875C163.201 241.875 163.704 241.758 164.113 241.523C164.526 241.289 164.837 240.987 165.046 240.616C165.259 240.245 165.366 239.855 165.366 239.446V238.065C165.302 238.142 165.161 238.212 164.944 238.276C164.731 238.336 164.484 238.389 164.203 238.436C163.926 238.479 163.655 238.517 163.391 238.551C163.131 238.581 162.92 238.607 162.758 238.628C162.366 238.679 161.999 238.762 161.658 238.877C161.322 238.988 161.049 239.156 160.84 239.382C160.636 239.604 160.533 239.906 160.533 240.29C160.533 240.814 160.727 241.21 161.115 241.479C161.507 241.743 162.004 241.875 162.604 241.875ZM173.898 233.182V234.46H168.81V233.182H173.898ZM170.293 230.83H171.801V240.188C171.801 240.614 171.863 240.933 171.986 241.146C172.114 241.355 172.276 241.496 172.472 241.568C172.672 241.636 172.883 241.67 173.105 241.67C173.271 241.67 173.408 241.662 173.514 241.645C173.621 241.624 173.706 241.607 173.77 241.594L174.077 242.949C173.974 242.987 173.832 243.026 173.648 243.064C173.465 243.107 173.233 243.128 172.952 243.128C172.525 243.128 172.108 243.036 171.699 242.853C171.294 242.67 170.957 242.391 170.689 242.016C170.425 241.641 170.293 241.168 170.293 240.597V230.83ZM180.178 243.205C179.232 243.205 178.416 242.996 177.73 242.578C177.048 242.156 176.522 241.568 176.151 240.814C175.784 240.055 175.601 239.173 175.601 238.168C175.601 237.162 175.784 236.276 176.151 235.509C176.522 234.737 177.037 234.136 177.698 233.706C178.362 233.271 179.138 233.054 180.024 233.054C180.536 233.054 181.041 233.139 181.539 233.31C182.038 233.48 182.492 233.757 182.901 234.141C183.31 234.52 183.636 235.023 183.879 235.649C184.122 236.276 184.243 237.047 184.243 237.963V238.602H176.675V237.298H182.709C182.709 236.744 182.598 236.25 182.377 235.815C182.159 235.381 181.848 235.038 181.443 234.786C181.043 234.535 180.57 234.409 180.024 234.409C179.424 234.409 178.904 234.558 178.465 234.857C178.03 235.151 177.696 235.534 177.461 236.007C177.227 236.48 177.11 236.987 177.11 237.528V238.398C177.11 239.139 177.237 239.768 177.493 240.283C177.753 240.795 178.113 241.185 178.573 241.453C179.034 241.717 179.568 241.849 180.178 241.849C180.574 241.849 180.932 241.794 181.252 241.683C181.576 241.568 181.855 241.398 182.089 241.172C182.323 240.942 182.505 240.656 182.632 240.315L184.09 240.724C183.936 241.219 183.679 241.653 183.316 242.028C182.954 242.399 182.507 242.689 181.974 242.898C181.441 243.102 180.843 243.205 180.178 243.205ZM186.538 243V233.182H187.995V234.665H188.098C188.277 234.179 188.6 233.785 189.069 233.482C189.538 233.18 190.066 233.028 190.654 233.028C190.765 233.028 190.904 233.031 191.07 233.035C191.236 233.039 191.362 233.045 191.447 233.054V234.588C191.396 234.575 191.279 234.556 191.095 234.531C190.916 234.501 190.727 234.486 190.527 234.486C190.049 234.486 189.623 234.586 189.248 234.786C188.877 234.982 188.583 235.255 188.366 235.604C188.153 235.95 188.046 236.344 188.046 236.787V243H186.538ZM193.235 243V233.182H194.744V243H193.235ZM194.002 231.545C193.708 231.545 193.455 231.445 193.242 231.245C193.033 231.045 192.928 230.804 192.928 230.523C192.928 230.241 193.033 230.001 193.242 229.8C193.455 229.6 193.708 229.5 194.002 229.5C194.296 229.5 194.548 229.6 194.756 229.8C194.97 230.001 195.076 230.241 195.076 230.523C195.076 230.804 194.97 231.045 194.756 231.245C194.548 231.445 194.296 231.545 194.002 231.545ZM200.396 243.23C199.774 243.23 199.209 243.113 198.702 242.879C198.195 242.64 197.792 242.297 197.494 241.849C197.196 241.398 197.046 240.852 197.046 240.213C197.046 239.651 197.157 239.195 197.379 238.845C197.6 238.491 197.897 238.214 198.267 238.014C198.638 237.814 199.047 237.665 199.495 237.567C199.946 237.464 200.4 237.384 200.856 237.324C201.453 237.247 201.936 237.19 202.307 237.151C202.682 237.109 202.955 237.038 203.125 236.94C203.3 236.842 203.387 236.672 203.387 236.429V236.378C203.387 235.747 203.215 235.257 202.87 234.908C202.529 234.558 202.011 234.384 201.316 234.384C200.596 234.384 200.032 234.541 199.622 234.857C199.213 235.172 198.926 235.509 198.759 235.866L197.328 235.355C197.583 234.759 197.924 234.294 198.35 233.962C198.781 233.625 199.25 233.391 199.757 233.259C200.268 233.122 200.771 233.054 201.265 233.054C201.581 233.054 201.943 233.092 202.352 233.169C202.765 233.241 203.164 233.393 203.547 233.623C203.935 233.853 204.257 234.2 204.512 234.665C204.768 235.129 204.896 235.751 204.896 236.531V243H203.387V241.67H203.311C203.208 241.884 203.038 242.112 202.799 242.354C202.561 242.597 202.243 242.804 201.847 242.974C201.451 243.145 200.967 243.23 200.396 243.23ZM200.626 241.875C201.223 241.875 201.725 241.758 202.134 241.523C202.548 241.289 202.859 240.987 203.068 240.616C203.281 240.245 203.387 239.855 203.387 239.446V238.065C203.323 238.142 203.183 238.212 202.965 238.276C202.752 238.336 202.505 238.389 202.224 238.436C201.947 238.479 201.676 238.517 201.412 238.551C201.152 238.581 200.941 238.607 200.779 238.628C200.387 238.679 200.021 238.762 199.68 238.877C199.343 238.988 199.071 239.156 198.862 239.382C198.657 239.604 198.555 239.906 198.555 240.29C198.555 240.814 198.749 241.21 199.137 241.479C199.529 241.743 200.025 241.875 200.626 241.875ZM209.158 229.909V243H207.649V229.909H209.158Z" fill="black"/>
<path d="M152.03 308.182V309.46H146.942V308.182H152.03ZM148.425 305.83H149.934V315.188C149.934 315.614 149.996 315.933 150.119 316.146C150.247 316.355 150.409 316.496 150.605 316.568C150.805 316.636 151.016 316.67 151.238 316.67C151.404 316.67 151.54 316.662 151.647 316.645C151.753 316.624 151.839 316.607 151.903 316.594L152.209 317.949C152.107 317.987 151.964 318.026 151.781 318.064C151.598 318.107 151.366 318.128 151.084 318.128C150.658 318.128 150.241 318.036 149.832 317.853C149.427 317.67 149.09 317.391 148.822 317.016C148.557 316.641 148.425 316.168 148.425 315.597V305.83ZM158.311 318.205C157.365 318.205 156.549 317.996 155.862 317.578C155.181 317.156 154.654 316.568 154.284 315.814C153.917 315.055 153.734 314.173 153.734 313.168C153.734 312.162 153.917 311.276 154.284 310.509C154.654 309.737 155.17 309.136 155.831 308.706C156.495 308.271 157.271 308.054 158.157 308.054C158.669 308.054 159.174 308.139 159.672 308.31C160.171 308.48 160.625 308.757 161.034 309.141C161.443 309.52 161.769 310.023 162.012 310.649C162.255 311.276 162.376 312.047 162.376 312.963V313.602H154.808V312.298H160.842C160.842 311.744 160.731 311.25 160.509 310.815C160.292 310.381 159.981 310.038 159.576 309.786C159.176 309.535 158.703 309.409 158.157 309.409C157.556 309.409 157.036 309.558 156.598 309.857C156.163 310.151 155.828 310.534 155.594 311.007C155.36 311.48 155.242 311.987 155.242 312.528V313.398C155.242 314.139 155.37 314.768 155.626 315.283C155.886 315.795 156.246 316.185 156.706 316.453C157.166 316.717 157.701 316.849 158.311 316.849C158.707 316.849 159.065 316.794 159.384 316.683C159.708 316.568 159.987 316.398 160.222 316.172C160.456 315.942 160.637 315.656 160.765 315.315L162.223 315.724C162.069 316.219 161.811 316.653 161.449 317.028C161.087 317.399 160.639 317.689 160.107 317.898C159.574 318.102 158.975 318.205 158.311 318.205ZM165.532 308.182L167.884 312.196L170.237 308.182H171.975L168.805 313.091L171.975 318H170.237L167.884 314.19L165.532 318H163.793L166.913 313.091L163.793 308.182H165.532ZM178.398 308.182V309.46H173.31V308.182H178.398ZM174.793 305.83H176.301V315.188C176.301 315.614 176.363 315.933 176.486 316.146C176.614 316.355 176.776 316.496 176.972 316.568C177.172 316.636 177.383 316.67 177.605 316.67C177.771 316.67 177.908 316.662 178.014 316.645C178.121 316.624 178.206 316.607 178.27 316.594L178.577 317.949C178.474 317.987 178.332 318.026 178.148 318.064C177.965 318.107 177.733 318.128 177.452 318.128C177.025 318.128 176.608 318.036 176.199 317.853C175.794 317.67 175.457 317.391 175.189 317.016C174.925 316.641 174.793 316.168 174.793 315.597V305.83ZM186.854 313.986V308.182H188.363V318H186.854V316.338H186.752C186.522 316.837 186.164 317.261 185.678 317.61C185.192 317.955 184.579 318.128 183.837 318.128C183.224 318.128 182.678 317.994 182.201 317.725C181.724 317.452 181.349 317.043 181.076 316.498C180.803 315.948 180.667 315.256 180.667 314.42V308.182H182.175V314.318C182.175 315.034 182.376 315.605 182.776 316.031C183.181 316.457 183.697 316.67 184.323 316.67C184.698 316.67 185.079 316.575 185.467 316.383C185.859 316.191 186.187 315.897 186.452 315.501C186.72 315.104 186.854 314.599 186.854 313.986ZM191.126 318V308.182H192.583V309.665H192.685C192.864 309.179 193.188 308.785 193.657 308.482C194.126 308.18 194.654 308.028 195.242 308.028C195.353 308.028 195.492 308.031 195.658 308.035C195.824 308.039 195.95 308.045 196.035 308.054V309.588C195.984 309.575 195.867 309.556 195.683 309.531C195.504 309.501 195.315 309.486 195.114 309.486C194.637 309.486 194.211 309.586 193.836 309.786C193.465 309.982 193.171 310.255 192.954 310.604C192.741 310.95 192.634 311.344 192.634 311.787V318H191.126ZM201.641 318.205C200.695 318.205 199.879 317.996 199.193 317.578C198.511 317.156 197.984 316.568 197.614 315.814C197.247 315.055 197.064 314.173 197.064 313.168C197.064 312.162 197.247 311.276 197.614 310.509C197.984 309.737 198.5 309.136 199.161 308.706C199.825 308.271 200.601 308.054 201.487 308.054C201.999 308.054 202.504 308.139 203.002 308.31C203.501 308.48 203.955 308.757 204.364 309.141C204.773 309.52 205.099 310.023 205.342 310.649C205.585 311.276 205.706 312.047 205.706 312.963V313.602H198.138V312.298H204.172C204.172 311.744 204.061 311.25 203.84 310.815C203.622 310.381 203.311 310.038 202.906 309.786C202.506 309.535 202.033 309.409 201.487 309.409C200.886 309.409 200.367 309.558 199.928 309.857C199.493 310.151 199.158 310.534 198.924 311.007C198.69 311.48 198.573 311.987 198.573 312.528V313.398C198.573 314.139 198.7 314.768 198.956 315.283C199.216 315.795 199.576 316.185 200.036 316.453C200.497 316.717 201.031 316.849 201.641 316.849C202.037 316.849 202.395 316.794 202.715 316.683C203.038 316.568 203.318 316.398 203.552 316.172C203.786 315.942 203.967 315.656 204.095 315.315L205.553 315.724C205.399 316.219 205.141 316.653 204.779 317.028C204.417 317.399 203.97 317.689 203.437 317.898C202.904 318.102 202.305 318.205 201.641 318.205Z" fill="black"/>
<path d="M151.629 393V383.182H153.137V393H151.629ZM152.396 381.545C152.102 381.545 151.848 381.445 151.635 381.245C151.426 381.045 151.322 380.804 151.322 380.523C151.322 380.241 151.426 380.001 151.635 379.8C151.848 379.6 152.102 379.5 152.396 379.5C152.69 379.5 152.941 379.6 153.15 379.8C153.363 380.001 153.47 380.241 153.47 380.523C153.47 380.804 153.363 381.045 153.15 381.245C152.941 381.445 152.69 381.545 152.396 381.545ZM155.9 393V383.182H157.358V384.716H157.485C157.69 384.192 158.02 383.785 158.476 383.495C158.932 383.201 159.48 383.054 160.119 383.054C160.767 383.054 161.306 383.201 161.736 383.495C162.171 383.785 162.51 384.192 162.752 384.716H162.855C163.106 384.209 163.483 383.806 163.986 383.508C164.489 383.205 165.092 383.054 165.795 383.054C166.673 383.054 167.391 383.329 167.949 383.879C168.507 384.424 168.787 385.274 168.787 386.429V393H167.278V386.429C167.278 385.705 167.08 385.187 166.684 384.876C166.287 384.565 165.821 384.409 165.284 384.409C164.593 384.409 164.059 384.618 163.679 385.036C163.3 385.449 163.11 385.973 163.11 386.608V393H161.576V386.276C161.576 385.717 161.395 385.268 161.033 384.927C160.671 384.582 160.204 384.409 159.633 384.409C159.241 384.409 158.875 384.513 158.534 384.722C158.197 384.931 157.924 385.221 157.716 385.592C157.511 385.958 157.409 386.382 157.409 386.864V393H155.9ZM174.434 393.23C173.812 393.23 173.247 393.113 172.74 392.879C172.233 392.64 171.83 392.297 171.532 391.849C171.234 391.398 171.085 390.852 171.085 390.213C171.085 389.651 171.195 389.195 171.417 388.845C171.638 388.491 171.935 388.214 172.305 388.014C172.676 387.814 173.085 387.665 173.533 387.567C173.984 387.464 174.438 387.384 174.894 387.324C175.491 387.247 175.974 387.19 176.345 387.151C176.72 387.109 176.993 387.038 177.163 386.94C177.338 386.842 177.425 386.672 177.425 386.429V386.378C177.425 385.747 177.253 385.257 176.908 384.908C176.567 384.558 176.049 384.384 175.354 384.384C174.634 384.384 174.07 384.541 173.661 384.857C173.251 385.172 172.964 385.509 172.798 385.866L171.366 385.355C171.621 384.759 171.962 384.294 172.388 383.962C172.819 383.625 173.288 383.391 173.795 383.259C174.306 383.122 174.809 383.054 175.303 383.054C175.619 383.054 175.981 383.092 176.39 383.169C176.803 383.241 177.202 383.393 177.585 383.623C177.973 383.853 178.295 384.2 178.55 384.665C178.806 385.129 178.934 385.751 178.934 386.531V393H177.425V391.67H177.349C177.246 391.884 177.076 392.112 176.837 392.354C176.599 392.597 176.281 392.804 175.885 392.974C175.489 393.145 175.005 393.23 174.434 393.23ZM174.664 391.875C175.261 391.875 175.763 391.758 176.173 391.523C176.586 391.289 176.897 390.987 177.106 390.616C177.319 390.245 177.425 389.855 177.425 389.446V388.065C177.362 388.142 177.221 388.212 177.004 388.276C176.79 388.336 176.543 388.389 176.262 388.436C175.985 388.479 175.714 388.517 175.45 388.551C175.19 388.581 174.979 388.607 174.817 388.628C174.425 388.679 174.059 388.762 173.718 388.877C173.381 388.988 173.109 389.156 172.9 389.382C172.695 389.604 172.593 389.906 172.593 390.29C172.593 390.814 172.787 391.21 173.175 391.479C173.567 391.743 174.063 391.875 174.664 391.875ZM185.65 396.886C184.922 396.886 184.295 396.793 183.771 396.605C183.247 396.422 182.81 396.179 182.461 395.876C182.116 395.578 181.841 395.259 181.636 394.918L182.838 394.074C182.974 394.253 183.147 394.457 183.356 394.688C183.564 394.922 183.85 395.124 184.212 395.295C184.579 395.469 185.058 395.557 185.65 395.557C186.443 395.557 187.097 395.365 187.613 394.982C188.128 394.598 188.386 393.997 188.386 393.179V391.185H188.258C188.148 391.364 187.99 391.585 187.785 391.849C187.585 392.109 187.295 392.342 186.916 392.546C186.541 392.746 186.034 392.847 185.395 392.847C184.602 392.847 183.89 392.659 183.26 392.284C182.633 391.909 182.137 391.364 181.77 390.648C181.408 389.932 181.227 389.062 181.227 388.04C181.227 387.034 181.404 386.158 181.758 385.413C182.111 384.663 182.604 384.083 183.234 383.674C183.865 383.261 184.594 383.054 185.42 383.054C186.059 383.054 186.567 383.161 186.942 383.374C187.321 383.582 187.611 383.821 187.811 384.089C188.015 384.354 188.173 384.571 188.284 384.741H188.437V383.182H189.895V393.281C189.895 394.125 189.703 394.811 189.319 395.339C188.94 395.872 188.429 396.262 187.785 396.509C187.146 396.761 186.434 396.886 185.65 396.886ZM185.599 391.491C186.204 391.491 186.716 391.353 187.133 391.076C187.551 390.799 187.868 390.401 188.086 389.881C188.303 389.361 188.412 388.739 188.412 388.014C188.412 387.307 188.305 386.683 188.092 386.141C187.879 385.6 187.564 385.176 187.146 384.869C186.729 384.562 186.213 384.409 185.599 384.409C184.96 384.409 184.427 384.571 184.001 384.895C183.579 385.219 183.262 385.653 183.049 386.199C182.84 386.744 182.736 387.349 182.736 388.014C182.736 388.696 182.842 389.299 183.055 389.823C183.273 390.343 183.592 390.752 184.014 391.05C184.44 391.344 184.969 391.491 185.599 391.491ZM196.773 393.205C195.827 393.205 195.01 392.996 194.324 392.578C193.643 392.156 193.116 391.568 192.746 390.814C192.379 390.055 192.196 389.173 192.196 388.168C192.196 387.162 192.379 386.276 192.746 385.509C193.116 384.737 193.632 384.136 194.292 383.706C194.957 383.271 195.733 383.054 196.619 383.054C197.131 383.054 197.635 383.139 198.134 383.31C198.633 383.48 199.086 383.757 199.496 384.141C199.905 384.52 200.231 385.023 200.474 385.649C200.716 386.276 200.838 387.047 200.838 387.963V388.602H193.27V387.298H199.304C199.304 386.744 199.193 386.25 198.971 385.815C198.754 385.381 198.443 385.038 198.038 384.786C197.638 384.535 197.165 384.409 196.619 384.409C196.018 384.409 195.498 384.558 195.059 384.857C194.625 385.151 194.29 385.534 194.056 386.007C193.822 386.48 193.704 386.987 193.704 387.528V388.398C193.704 389.139 193.832 389.768 194.088 390.283C194.348 390.795 194.708 391.185 195.168 391.453C195.628 391.717 196.163 391.849 196.773 391.849C197.169 391.849 197.527 391.794 197.846 391.683C198.17 391.568 198.449 391.398 198.684 391.172C198.918 390.942 199.099 390.656 199.227 390.315L200.684 390.724C200.531 391.219 200.273 391.653 199.911 392.028C199.549 392.399 199.101 392.689 198.569 392.898C198.036 393.102 197.437 393.205 196.773 393.205Z" fill="black"/>
<path d="M8.53249 385.381L7.17738 385.764C7.09215 385.538 6.96644 385.319 6.80025 385.106C6.63832 384.888 6.41673 384.71 6.13548 384.569C5.85423 384.428 5.49414 384.358 5.05522 384.358C4.45437 384.358 3.95366 384.496 3.55309 384.773C3.15678 385.046 2.95863 385.393 2.95863 385.815C2.95863 386.19 3.09499 386.487 3.36772 386.704C3.64045 386.921 4.06658 387.102 4.64613 387.247L6.10352 387.605C6.98136 387.818 7.63548 388.144 8.06587 388.583C8.49627 389.018 8.71147 389.578 8.71147 390.264C8.71147 390.827 8.54954 391.33 8.22568 391.773C7.90607 392.216 7.45863 392.565 6.88335 392.821C6.30806 393.077 5.63903 393.205 4.87624 393.205C3.87482 393.205 3.04599 392.987 2.38974 392.553C1.73349 392.118 1.318 391.483 1.14329 390.648L2.57511 390.29C2.71147 390.818 2.96928 391.214 3.34854 391.479C3.73207 391.743 4.23278 391.875 4.85068 391.875C5.5538 391.875 6.11204 391.726 6.52539 391.428C6.943 391.125 7.15181 390.763 7.15181 390.341C7.15181 390 7.03249 389.714 6.79386 389.484C6.55522 389.25 6.18874 389.075 5.69443 388.96L4.05806 388.577C3.15891 388.364 2.4984 388.033 2.07653 387.586C1.65891 387.134 1.45011 386.57 1.45011 385.892C1.45011 385.338 1.60565 384.848 1.91673 384.422C2.23207 383.996 2.66033 383.661 3.20153 383.418C3.74698 383.175 4.36488 383.054 5.05522 383.054C6.02681 383.054 6.7896 383.267 7.34357 383.693C7.90181 384.119 8.29812 384.682 8.53249 385.381ZM13.8714 393.23C13.2493 393.23 12.6847 393.113 12.1776 392.879C11.6705 392.64 11.2678 392.297 10.9695 391.849C10.6712 391.398 10.522 390.852 10.522 390.213C10.522 389.651 10.6328 389.195 10.8544 388.845C11.076 388.491 11.3722 388.214 11.7429 388.014C12.1136 387.814 12.5227 387.665 12.9702 387.567C13.4219 387.464 13.8757 387.384 14.3317 387.324C14.9283 387.247 15.4119 387.19 15.7827 387.151C16.1577 387.109 16.4304 387.038 16.6009 386.94C16.7756 386.842 16.8629 386.672 16.8629 386.429V386.378C16.8629 385.747 16.6903 385.257 16.3452 384.908C16.0043 384.558 15.4865 384.384 14.7919 384.384C14.0717 384.384 13.5071 384.541 13.098 384.857C12.6889 385.172 12.4013 385.509 12.2351 385.866L10.8033 385.355C11.0589 384.759 11.3999 384.294 11.826 383.962C12.2564 383.625 12.7251 383.391 13.2322 383.259C13.7436 383.122 14.2464 383.054 14.7408 383.054C15.0561 383.054 15.4183 383.092 15.8274 383.169C16.2408 383.241 16.6392 383.393 17.0227 383.623C17.4105 383.853 17.7322 384.2 17.9879 384.665C18.2436 385.129 18.3714 385.751 18.3714 386.531V393H16.8629V391.67H16.7862C16.6839 391.884 16.5135 392.112 16.2749 392.354C16.0362 392.597 15.7188 392.804 15.3224 392.974C14.9261 393.145 14.4425 393.23 13.8714 393.23ZM14.1016 391.875C14.6982 391.875 15.201 391.758 15.6101 391.523C16.0234 391.289 16.3345 390.987 16.5433 390.616C16.7564 390.245 16.8629 389.855 16.8629 389.446V388.065C16.799 388.142 16.6584 388.212 16.4411 388.276C16.228 388.336 15.9808 388.389 15.6996 388.436C15.4226 388.479 15.152 388.517 14.8878 388.551C14.6278 388.581 14.4169 388.607 14.255 388.628C13.8629 388.679 13.4964 388.762 13.1555 388.877C12.8189 388.988 12.5462 389.156 12.3374 389.382C12.1328 389.604 12.0305 389.906 12.0305 390.29C12.0305 390.814 12.2244 391.21 12.6122 391.479C13.0043 391.743 13.5007 391.875 14.1016 391.875ZM21.1248 393V383.182H22.5822V384.716H22.71C22.9146 384.192 23.2449 383.785 23.7008 383.495C24.1568 383.201 24.7044 383.054 25.3436 383.054C25.9913 383.054 26.5304 383.201 26.9608 383.495C27.3954 383.785 27.7342 384.192 27.9771 384.716H28.0794C28.3308 384.209 28.7079 383.806 29.2108 383.508C29.7136 383.205 30.3166 383.054 31.0197 383.054C31.8976 383.054 32.6156 383.329 33.1738 383.879C33.7321 384.424 34.0112 385.274 34.0112 386.429V393H32.5027V386.429C32.5027 385.705 32.3045 385.187 31.9082 384.876C31.5119 384.565 31.0453 384.409 30.5083 384.409C29.818 384.409 29.2832 384.618 28.9039 385.036C28.5247 385.449 28.3351 385.973 28.3351 386.608V393H26.801V386.276C26.801 385.717 26.6199 385.268 26.2576 384.927C25.8954 384.582 25.4288 384.409 24.8578 384.409C24.4657 384.409 24.0993 384.513 23.7583 384.722C23.4217 384.931 23.149 385.221 22.9402 385.592C22.7356 385.958 22.6333 386.382 22.6333 386.864V393H21.1248ZM36.7694 396.682V383.182H38.2267V384.741H38.4057C38.5165 384.571 38.6699 384.354 38.8659 384.089C39.0662 383.821 39.3517 383.582 39.7225 383.374C40.0975 383.161 40.6046 383.054 41.2438 383.054C42.0705 383.054 42.7992 383.261 43.4299 383.674C44.0605 384.087 44.5527 384.673 44.9064 385.432C45.2601 386.19 45.437 387.085 45.437 388.116C45.437 389.156 45.2601 390.058 44.9064 390.82C44.5527 391.579 44.0627 392.167 43.4363 392.585C42.8098 392.998 42.0875 393.205 41.2694 393.205C40.6387 393.205 40.1337 393.1 39.7544 392.891C39.3752 392.678 39.0833 392.437 38.8787 392.169C38.6742 391.896 38.5165 391.67 38.4057 391.491H38.2779V396.682H36.7694ZM38.2523 388.091C38.2523 388.832 38.361 389.487 38.5783 390.053C38.7956 390.616 39.1131 391.057 39.5307 391.376C39.9483 391.692 40.4597 391.849 41.0648 391.849C41.6955 391.849 42.2218 391.683 42.6436 391.351C43.0698 391.014 43.3894 390.562 43.6025 389.996C43.8198 389.425 43.9284 388.79 43.9284 388.091C43.9284 387.401 43.8219 386.778 43.6088 386.224C43.4 385.666 43.0826 385.225 42.6564 384.901C42.2346 384.573 41.704 384.409 41.0648 384.409C40.4512 384.409 39.9355 384.565 39.5179 384.876C39.1003 385.183 38.785 385.613 38.5719 386.167C38.3588 386.717 38.2523 387.358 38.2523 388.091ZM49.2466 379.909V393H47.7381V379.909H49.2466ZM56.1261 393.205C55.18 393.205 54.364 392.996 53.6779 392.578C52.9961 392.156 52.4698 391.568 52.0991 390.814C51.7326 390.055 51.5494 389.173 51.5494 388.168C51.5494 387.162 51.7326 386.276 52.0991 385.509C52.4698 384.737 52.9854 384.136 53.646 383.706C54.3107 383.271 55.0863 383.054 55.9727 383.054C56.484 383.054 56.989 383.139 57.4876 383.31C57.9862 383.48 58.44 383.757 58.8491 384.141C59.2582 384.52 59.5842 385.023 59.8271 385.649C60.07 386.276 60.1914 387.047 60.1914 387.963V388.602H52.6232V387.298H58.6573C58.6573 386.744 58.5465 386.25 58.3249 385.815C58.1076 385.381 57.7965 385.038 57.3917 384.786C56.9911 384.535 56.5181 384.409 55.9727 384.409C55.3718 384.409 54.8519 384.558 54.413 384.857C53.9783 385.151 53.6438 385.534 53.4094 386.007C53.1751 386.48 53.0579 386.987 53.0579 387.528V388.398C53.0579 389.139 53.1857 389.768 53.4414 390.283C53.7013 390.795 54.0614 391.185 54.5217 391.453C54.9819 391.717 55.5167 391.849 56.1261 391.849C56.5224 391.849 56.8803 391.794 57.1999 391.683C57.5238 391.568 57.8029 391.398 58.0373 391.172C58.2717 390.942 58.4528 390.656 58.5806 390.315L60.038 390.724C59.8846 391.219 59.6268 391.653 59.2646 392.028C58.9023 392.399 58.4549 392.689 57.9222 392.898C57.3896 393.102 56.7908 393.205 56.1261 393.205ZM62.4862 393V383.182H63.9435V384.665H64.0458C64.2248 384.179 64.5487 383.785 65.0174 383.482C65.4862 383.18 66.0146 383.028 66.6026 383.028C66.7134 383.028 66.8519 383.031 67.0181 383.035C67.1843 383.039 67.31 383.045 67.3952 383.054V384.588C67.3441 384.575 67.2269 384.556 67.0437 384.531C66.8647 384.501 66.6751 384.486 66.4748 384.486C65.9975 384.486 65.5714 384.586 65.1964 384.786C64.8256 384.982 64.5316 385.255 64.3143 385.604C64.1012 385.95 63.9947 386.344 63.9947 386.787V393H62.4862Z" fill="black"/>
<path d="M437.337 160.381L435.982 160.764C435.897 160.538 435.771 160.319 435.605 160.106C435.443 159.888 435.221 159.71 434.94 159.569C434.659 159.428 434.299 159.358 433.86 159.358C433.259 159.358 432.758 159.496 432.358 159.773C431.961 160.046 431.763 160.393 431.763 160.815C431.763 161.19 431.9 161.487 432.172 161.704C432.445 161.921 432.871 162.102 433.451 162.247L434.908 162.605C435.786 162.818 436.44 163.144 436.871 163.583C437.301 164.018 437.516 164.578 437.516 165.264C437.516 165.827 437.354 166.33 437.03 166.773C436.711 167.216 436.263 167.565 435.688 167.821C435.113 168.077 434.444 168.205 433.681 168.205C432.68 168.205 431.851 167.987 431.194 167.553C430.538 167.118 430.123 166.483 429.948 165.648L431.38 165.29C431.516 165.818 431.774 166.214 432.153 166.479C432.537 166.743 433.037 166.875 433.655 166.875C434.358 166.875 434.917 166.726 435.33 166.428C435.748 166.125 435.956 165.763 435.956 165.341C435.956 165 435.837 164.714 435.599 164.484C435.36 164.25 434.993 164.075 434.499 163.96L432.863 163.577C431.964 163.364 431.303 163.033 430.881 162.586C430.464 162.134 430.255 161.57 430.255 160.892C430.255 160.338 430.41 159.848 430.721 159.422C431.037 158.996 431.465 158.661 432.006 158.418C432.552 158.175 433.17 158.054 433.86 158.054C434.831 158.054 435.594 158.267 436.148 158.693C436.706 159.119 437.103 159.682 437.337 160.381ZM441.193 164.42L441.168 162.554H441.474L445.77 158.182H447.636L443.06 162.81H442.932L441.193 164.42ZM439.787 168V154.909H441.295V168H439.787ZM446.026 168L442.19 163.142L443.264 162.094L447.943 168H446.026ZM449.578 168V158.182H451.086V168H449.578ZM450.345 156.545C450.051 156.545 449.797 156.445 449.584 156.245C449.376 156.045 449.271 155.804 449.271 155.523C449.271 155.241 449.376 155.001 449.584 154.8C449.797 154.6 450.051 154.5 450.345 154.5C450.639 154.5 450.89 154.6 451.099 154.8C451.312 155.001 451.419 155.241 451.419 155.523C451.419 155.804 451.312 156.045 451.099 156.245C450.89 156.445 450.639 156.545 450.345 156.545ZM455.358 162.094V168H453.849V158.182H455.307V159.716H455.435C455.665 159.217 456.014 158.817 456.483 158.514C456.952 158.207 457.557 158.054 458.298 158.054C458.963 158.054 459.545 158.19 460.043 158.463C460.542 158.732 460.93 159.141 461.207 159.69C461.484 160.236 461.622 160.926 461.622 161.761V168H460.114V161.864C460.114 161.092 459.913 160.491 459.513 160.061C459.112 159.626 458.563 159.409 457.864 159.409C457.382 159.409 456.952 159.513 456.572 159.722C456.197 159.931 455.901 160.236 455.684 160.636C455.467 161.037 455.358 161.523 455.358 162.094Z" fill="black"/>
<path d="M409.365 243.23C408.742 243.23 408.178 243.113 407.671 242.879C407.164 242.64 406.761 242.297 406.463 241.849C406.164 241.398 406.015 240.852 406.015 240.213C406.015 239.651 406.126 239.195 406.348 238.845C406.569 238.491 406.865 238.214 407.236 238.014C407.607 237.814 408.016 237.665 408.463 237.567C408.915 237.464 409.369 237.384 409.825 237.324C410.421 237.247 410.905 237.19 411.276 237.151C411.651 237.109 411.924 237.038 412.094 236.94C412.269 236.842 412.356 236.672 412.356 236.429V236.378C412.356 235.747 412.184 235.257 411.838 234.908C411.497 234.558 410.98 234.384 410.285 234.384C409.565 234.384 409 234.541 408.591 234.857C408.182 235.172 407.894 235.509 407.728 235.866L406.296 235.355C406.552 234.759 406.893 234.294 407.319 233.962C407.75 233.625 408.218 233.391 408.725 233.259C409.237 233.122 409.74 233.054 410.234 233.054C410.549 233.054 410.911 233.092 411.321 233.169C411.734 233.241 412.132 233.393 412.516 233.623C412.904 233.853 413.225 234.2 413.481 234.665C413.737 235.129 413.865 235.751 413.865 236.531V243H412.356V241.67H412.279C412.177 241.884 412.007 242.112 411.768 242.354C411.529 242.597 411.212 242.804 410.816 242.974C410.419 243.145 409.936 243.23 409.365 243.23ZM409.595 241.875C410.191 241.875 410.694 241.758 411.103 241.523C411.517 241.289 411.828 240.987 412.036 240.616C412.25 240.245 412.356 239.855 412.356 239.446V238.065C412.292 238.142 412.152 238.212 411.934 238.276C411.721 238.336 411.474 238.389 411.193 238.436C410.916 238.479 410.645 238.517 410.381 238.551C410.121 238.581 409.91 238.607 409.748 238.628C409.356 238.679 408.99 238.762 408.649 238.877C408.312 238.988 408.039 239.156 407.831 239.382C407.626 239.604 407.524 239.906 407.524 240.29C407.524 240.814 407.718 241.21 408.105 241.479C408.497 241.743 408.994 241.875 409.595 241.875ZM418.127 237.094V243H416.618V233.182H418.075V234.716H418.203C418.433 234.217 418.783 233.817 419.252 233.514C419.72 233.207 420.325 233.054 421.067 233.054C421.732 233.054 422.313 233.19 422.812 233.463C423.31 233.732 423.698 234.141 423.975 234.69C424.252 235.236 424.391 235.926 424.391 236.761V243H422.882V236.864C422.882 236.092 422.682 235.491 422.281 235.061C421.881 234.626 421.331 234.409 420.632 234.409C420.151 234.409 419.72 234.513 419.341 234.722C418.966 234.931 418.67 235.236 418.453 235.636C418.235 236.037 418.127 236.523 418.127 237.094ZM427.147 243V233.182H428.656V243H427.147ZM427.914 231.545C427.62 231.545 427.367 231.445 427.154 231.245C426.945 231.045 426.84 230.804 426.84 230.523C426.84 230.241 426.945 230.001 427.154 229.8C427.367 229.6 427.62 229.5 427.914 229.5C428.208 229.5 428.46 229.6 428.669 229.8C428.882 230.001 428.988 230.241 428.988 230.523C428.988 230.804 428.882 231.045 428.669 231.245C428.46 231.445 428.208 231.545 427.914 231.545ZM431.419 243V233.182H432.876V234.716H433.004C433.209 234.192 433.539 233.785 433.995 233.495C434.451 233.201 434.998 233.054 435.638 233.054C436.285 233.054 436.824 233.201 437.255 233.495C437.689 233.785 438.028 234.192 438.271 234.716H438.373C438.625 234.209 439.002 233.806 439.505 233.508C440.008 233.205 440.611 233.054 441.314 233.054C442.191 233.054 442.91 233.329 443.468 233.879C444.026 234.424 444.305 235.274 444.305 236.429V243H442.797V236.429C442.797 235.705 442.598 235.187 442.202 234.876C441.806 234.565 441.339 234.409 440.802 234.409C440.112 234.409 439.577 234.618 439.198 235.036C438.819 235.449 438.629 235.973 438.629 236.608V243H437.095V236.276C437.095 235.717 436.914 235.268 436.552 234.927C436.189 234.582 435.723 234.409 435.152 234.409C434.76 234.409 434.393 234.513 434.052 234.722C433.716 234.931 433.443 235.221 433.234 235.592C433.03 235.958 432.927 236.382 432.927 236.864V243H431.419ZM449.953 243.23C449.33 243.23 448.766 243.113 448.259 242.879C447.752 242.64 447.349 242.297 447.051 241.849C446.752 241.398 446.603 240.852 446.603 240.213C446.603 239.651 446.714 239.195 446.935 238.845C447.157 238.491 447.453 238.214 447.824 238.014C448.195 237.814 448.604 237.665 449.051 237.567C449.503 237.464 449.957 237.384 450.413 237.324C451.009 237.247 451.493 237.19 451.864 237.151C452.239 237.109 452.511 237.038 452.682 236.94C452.857 236.842 452.944 236.672 452.944 236.429V236.378C452.944 235.747 452.771 235.257 452.426 234.908C452.085 234.558 451.568 234.384 450.873 234.384C450.153 234.384 449.588 234.541 449.179 234.857C448.77 235.172 448.482 235.509 448.316 235.866L446.884 235.355C447.14 234.759 447.481 234.294 447.907 233.962C448.337 233.625 448.806 233.391 449.313 233.259C449.825 233.122 450.328 233.054 450.822 233.054C451.137 233.054 451.499 233.092 451.908 233.169C452.322 233.241 452.72 233.393 453.104 233.623C453.492 233.853 453.813 234.2 454.069 234.665C454.325 235.129 454.453 235.751 454.453 236.531V243H452.944V241.67H452.867C452.765 241.884 452.595 242.112 452.356 242.354C452.117 242.597 451.8 242.804 451.403 242.974C451.007 243.145 450.524 243.23 449.953 243.23ZM450.183 241.875C450.779 241.875 451.282 241.758 451.691 241.523C452.104 241.289 452.416 240.987 452.624 240.616C452.837 240.245 452.944 239.855 452.944 239.446V238.065C452.88 238.142 452.739 238.212 452.522 238.276C452.309 238.336 452.062 238.389 451.781 238.436C451.504 238.479 451.233 238.517 450.969 238.551C450.709 238.581 450.498 238.607 450.336 238.628C449.944 238.679 449.578 238.762 449.237 238.877C448.9 238.988 448.627 239.156 448.418 239.382C448.214 239.604 448.112 239.906 448.112 240.29C448.112 240.814 448.305 241.21 448.693 241.479C449.085 241.743 449.582 241.875 450.183 241.875ZM461.476 233.182V234.46H456.388V233.182H461.476ZM457.871 230.83H459.379V240.188C459.379 240.614 459.441 240.933 459.565 241.146C459.692 241.355 459.854 241.496 460.05 241.568C460.251 241.636 460.462 241.67 460.683 241.67C460.849 241.67 460.986 241.662 461.092 241.645C461.199 241.624 461.284 241.607 461.348 241.594L461.655 242.949C461.552 242.987 461.41 243.026 461.226 243.064C461.043 243.107 460.811 243.128 460.53 243.128C460.104 243.128 459.686 243.036 459.277 242.853C458.872 242.67 458.535 242.391 458.267 242.016C458.003 241.641 457.871 241.168 457.871 240.597V230.83ZM463.745 243V233.182H465.253V243H463.745ZM464.512 231.545C464.218 231.545 463.964 231.445 463.751 231.245C463.543 231.045 463.438 230.804 463.438 230.523C463.438 230.241 463.543 230.001 463.751 229.8C463.964 229.6 464.218 229.5 464.512 229.5C464.806 229.5 465.057 229.6 465.266 229.8C465.479 230.001 465.586 230.241 465.586 230.523C465.586 230.804 465.479 231.045 465.266 231.245C465.057 231.445 464.806 231.545 464.512 231.545ZM472.005 243.205C471.119 243.205 470.341 242.994 469.672 242.572C469.007 242.15 468.487 241.56 468.112 240.801C467.742 240.043 467.556 239.156 467.556 238.142C467.556 237.119 467.742 236.227 468.112 235.464C468.487 234.701 469.007 234.109 469.672 233.687C470.341 233.265 471.119 233.054 472.005 233.054C472.891 233.054 473.667 233.265 474.332 233.687C475.001 234.109 475.521 234.701 475.891 235.464C476.266 236.227 476.454 237.119 476.454 238.142C476.454 239.156 476.266 240.043 475.891 240.801C475.521 241.56 475.001 242.15 474.332 242.572C473.667 242.994 472.891 243.205 472.005 243.205ZM472.005 241.849C472.678 241.849 473.232 241.677 473.667 241.332C474.102 240.987 474.423 240.533 474.632 239.97C474.841 239.408 474.945 238.798 474.945 238.142C474.945 237.486 474.841 236.874 474.632 236.308C474.423 235.741 474.102 235.283 473.667 234.933C473.232 234.584 472.678 234.409 472.005 234.409C471.332 234.409 470.778 234.584 470.343 234.933C469.908 235.283 469.587 235.741 469.378 236.308C469.169 236.874 469.065 237.486 469.065 238.142C469.065 238.798 469.169 239.408 469.378 239.97C469.587 240.533 469.908 240.987 470.343 241.332C470.778 241.677 471.332 241.849 472.005 241.849ZM480.265 237.094V243H478.757V233.182H480.214V234.716H480.342C480.572 234.217 480.921 233.817 481.39 233.514C481.859 233.207 482.464 233.054 483.206 233.054C483.87 233.054 484.452 233.19 484.951 233.463C485.449 233.732 485.837 234.141 486.114 234.69C486.391 235.236 486.529 235.926 486.529 236.761V243H485.021V236.864C485.021 236.092 484.821 235.491 484.42 235.061C484.019 234.626 483.47 234.409 482.771 234.409C482.289 234.409 481.859 234.513 481.48 234.722C481.105 234.931 480.809 235.236 480.591 235.636C480.374 236.037 480.265 236.523 480.265 237.094Z" fill="black"/>
<path d="M319 75L324.774 65L313.226 65L319 75ZM318 27L318 66L320 66L320 27L318 27Z" fill="black"/>
<path d="M319 150L324.774 140L313.226 140L319 150ZM318 102L318 141L320 141L320 102L318 102Z" fill="black"/>
<path d="M365 236L375 241.774V230.226L365 236ZM400 235H374V237H400V235Z" fill="black"/>
<path d="M330 102L332.661 113.236L341.061 105.314L330 102ZM446.728 224.314L336.902 107.861L335.447 109.234L445.272 225.686L446.728 224.314Z" fill="black"/>
<path d="M319 225L324.774 215L313.226 215L319 225ZM318 177L318 216L320 216L320 177L318 177Z" fill="black"/>
<path d="M319 300L324.774 290L313.226 290L319 300ZM318 252L318 291L320 291L320 252L318 252Z" fill="black"/>
<path d="M319 375L324.774 365L313.226 365L319 375ZM318 327L318 366L320 366L320 327L318 327Z" fill="black"/>
<path d="M176 375L181.774 365L170.226 365L176 375ZM175 327L175 366L177 366L177 327L175 327Z" fill="black"/>
<path d="M34 375L45.4099 376.774L41.2415 366.006L34 375ZM157.639 326.067L42.0321 370.818L42.7541 372.684L158.361 327.933L157.639 326.067Z" fill="black"/>
<path d="M177 150L188.41 151.774L184.241 141.006L177 150ZM300.639 101.067L185.032 145.818L185.754 147.684L301.361 102.933L300.639 101.067Z" fill="black"/>
<path d="M177 225L188.41 226.774L184.241 216.006L177 225ZM300.639 176.067L185.032 220.818L185.754 222.684L301.361 177.933L300.639 176.067Z" fill="black"/>
<path d="M337 225L348.474 226.292L343.856 215.709L337 225ZM446.6 176.083L344.849 220.484L345.649 222.317L447.4 177.917L446.6 176.083Z" fill="black"/>
<path d="M447 150L440.678 140.337L435.471 150.643L447 150ZM352 102L358.322 111.663L363.529 101.357L352 102ZM439.418 145.049L360.484 105.166L359.582 106.951L438.516 146.834L439.418 145.049Z" fill="black"/>
<path d="M176 300L181.774 290L170.226 290L176 300ZM175 252L175 291L177 291L177 252L175 252Z" fill="black"/>
</svg>
